<svg xmlns="http://www.w3.org/2000/svg" viewBox="0 0 211.12 41.07"><defs><style>.cls-1{fill:#1d1e1b;}</style></defs><title>Element 366</title><g id="Ebene_2" data-name="Ebene 2"><g id="content"><path class="cls-1" d="M18.53,15.06C18.53,18.72,16,21,12,21H1.49V0h10c3.69,0,6.32,2,6.32,5.4A4.54,4.54,0,0,1,14.54,10C17.11,10.75,18.53,12.43,18.53,15.06ZM5.62,8.45h4.84c2.13,0,3.31-1,3.31-2.72s-1.09-2.54-3.28-2.54H5.62Zm4.93,9.33c2.51,0,3.84-1.13,3.84-3S13,11.66,10.55,11.66H5.62v6.12Z"/><rect class="cls-1" x="21.2" width="3.84" height="3.84"/><rect class="cls-1" x="21.2" y="5.88" width="3.84" height="15.09"/><path class="cls-1" d="M37.16,20.76a10.43,10.43,0,0,1-3.39.56c-3,0-4.28-1.39-4.28-4.25V8.8H26.8V5.88h2.69V1.21h3.84V5.88h3.6V8.8h-3.6v7.8c0,1,.44,1.38,1.5,1.38a8.63,8.63,0,0,0,1.89-.26Z"/><path class="cls-1" d="M56.58,15.06c0,3.66-2.51,5.91-6.5,5.91H39.54V0h10c3.69,0,6.32,2,6.32,5.4A4.54,4.54,0,0,1,52.59,10C55.16,10.75,56.58,12.43,56.58,15.06ZM43.67,8.45h4.85c2.12,0,3.3-1,3.3-2.72s-1.09-2.54-3.28-2.54H43.67Zm4.93,9.33c2.51,0,3.84-1.13,3.84-3s-1.36-3.08-3.84-3.08H43.67v6.12Z"/><path class="cls-1" d="M74.07,13.41c0,4.78-3.28,8-7.82,8s-7.86-3.25-7.86-8,3.28-8,7.86-8S74.07,8.62,74.07,13.41Zm-11.78,0c0,2.92,1.56,4.78,4,4.78s3.92-1.86,3.92-4.78-1.56-4.79-3.92-4.79S62.29,10.54,62.29,13.41Z"/><path class="cls-1" d="M85.06,21l-3.4-5.17L78.23,21H74.1l5.43-7.92L74.6,5.88h4.17l3,4.43,2.89-4.43h4.14l-4.88,7L89.28,21Z"/><path class="cls-1" d="M106.55,2.56H100.1V20.84H97.44V2.56H91V.31h15.56Z"/><path class="cls-1" d="M118.47,18.3c-2.06,2.17-3.79,2.95-6.22,2.95-4.31,0-7-3-7-7.44s2.69-7.6,6.8-7.6,6.42,2.6,6.42,6.85c0,.38,0,.75-.06,1.1h-10.7c.14,2.89,1.71,5,4.6,5a4.83,4.83,0,0,0,2.31-.52,11.06,11.06,0,0,0,2.4-1.85Zm-10.7-6H116c-.12-2.52-1.56-4.11-4-4.11S108.14,9.68,107.77,12.31Z"/><path class="cls-1" d="M135,13.7c0,4.48-2.63,7.52-6.28,7.52A5.29,5.29,0,0,1,124,19v7.09h-2.49V6.61h2.34V8.84a5.25,5.25,0,0,1,4.86-2.6C132.38,6.24,135,9.27,135,13.7Zm-2.55,0c0-3.21-1.59-5.35-4.1-5.35s-4.43,2-4.43,5.35,1.79,5.38,4.43,5.38C130.81,19.08,132.46,16.94,132.46,13.7Z"/><path class="cls-1" d="M7.9,29H4.62v9.28H3.27V29H0V27.82H7.9Z"/><path class="cls-1" d="M13.75,33.22v5H12.61v-.88a2.82,2.82,0,0,1-2.45,1.12c-1.53,0-2.59-.66-2.59-2a1.83,1.83,0,0,1,.88-1.69,7.39,7.39,0,0,1,2.48-.82l1.62-.29v-.37c0-.9-.68-1.43-1.69-1.43a3.13,3.13,0,0,0-2.38,1.22l-.81-.72a3.94,3.94,0,0,1,3.15-1.54C12.68,30.81,13.75,31.77,13.75,33.22Zm-1.2,2.32v-1l-1.32.27c-1.65.34-2.35.57-2.42,1.56,0,.66.54,1,1.48,1A2,2,0,0,0,12.55,35.54Z"/><path class="cls-1" d="M25.67,33.21v5H24.41V33.56c0-1.07-.49-1.68-1.44-1.68a1.66,1.66,0,0,0-1.66,1.82v4.54H20.05V33.56c0-1.07-.46-1.68-1.44-1.68A1.63,1.63,0,0,0,17,33.5v4.74H15.7V31h1.19v.86A2.24,2.24,0,0,1,19,30.81,2.18,2.18,0,0,1,21,32a2.45,2.45,0,0,1,2.22-1.16A2.22,2.22,0,0,1,25.67,33.21Z"/><path class="cls-1" d="M34.46,34.61c0,2.28-1.34,3.82-3.19,3.82a2.69,2.69,0,0,1-2.39-1.14v3.59H27.62V31h1.19v1.13a2.66,2.66,0,0,1,2.46-1.32C33.12,30.83,34.46,32.37,34.46,34.61Zm-1.29,0c0-1.62-.81-2.71-2.09-2.71s-2.25,1-2.25,2.71.91,2.74,2.25,2.74S33.17,36.26,33.17,34.61Z"/><path class="cls-1" d="M42.38,37a4,4,0,0,1-3.16,1.5,3.45,3.45,0,0,1-3.56-3.78c0-2.26,1.36-3.86,3.45-3.86s3.26,1.32,3.26,3.48c0,.19,0,.38,0,.56H36.9c.08,1.47.87,2.54,2.34,2.54a2.52,2.52,0,0,0,1.17-.26,6.07,6.07,0,0,0,1.22-.94Zm-5.43-3h4.17a2,2,0,0,0-2-2.08A2.11,2.11,0,0,0,37,33.91Z"/><path class="cls-1" d="M48.06,31.15l-.24,1.06a3.1,3.1,0,0,0-.94-.15c-1,0-1.68.88-1.68,2.3v3.88H43.93V31h1.19v1.1a1.93,1.93,0,0,1,1.79-1.18A3.85,3.85,0,0,1,48.06,31.15Z"/><path class="cls-1" d="M53.12,34.58H48.85V33.45h4.27Z"/><path class="cls-1" d="M61.37,37a4,4,0,0,1-3.16,1.5,3.45,3.45,0,0,1-3.57-3.78c0-2.26,1.37-3.86,3.45-3.86s3.26,1.32,3.26,3.48a5.12,5.12,0,0,1,0,.56H55.89c.08,1.47.87,2.54,2.34,2.54a2.55,2.55,0,0,0,1.17-.26,6.07,6.07,0,0,0,1.22-.94Zm-5.43-3h4.17a2,2,0,0,0-2-2.08A2.1,2.1,0,0,0,55.94,33.91Z"/><path class="cls-1" d="M68.75,31l-2.51,7.22h-1.6L62.14,31h1.32l.9,2.65c.5,1.55.87,2.74,1.1,3.59.32-1.15.69-2.34,1.1-3.59l.9-2.65Z"/><path class="cls-1" d="M71.21,29.59H70V28.08h1.26Zm0,8.65H70V31h1.26Z"/><path class="cls-1" d="M79.61,27.82V38.24H78.42V37.11A2.68,2.68,0,0,1,76,38.43c-1.85,0-3.18-1.54-3.18-3.8s1.36-3.8,3.21-3.8A2.65,2.65,0,0,1,78.34,32V27.82Zm-1.22,6.81c0-1.69-.91-2.72-2.25-2.72S74.06,33,74.06,34.63s.81,2.73,2.08,2.73S78.39,36.32,78.39,34.63Z"/><path class="cls-1" d="M87.85,37a4,4,0,0,1-3.15,1.5,3.45,3.45,0,0,1-3.57-3.78c0-2.26,1.36-3.86,3.45-3.86s3.26,1.32,3.26,3.48c0,.19,0,.38,0,.56H82.38c.07,1.47.86,2.54,2.33,2.54a2.57,2.57,0,0,0,1.18-.26,6.36,6.36,0,0,0,1.21-.94Zm-5.43-3h4.17a2,2,0,0,0-2-2.08A2.11,2.11,0,0,0,82.42,33.91Z"/><path class="cls-1" d="M95.45,33.29v5H94.19V33.69c0-1.17-.59-1.81-1.66-1.81a1.84,1.84,0,0,0-1.86,1.88v4.48H89.41V31h1.18V32a2.56,2.56,0,0,1,2.28-1.15A2.35,2.35,0,0,1,95.45,33.29Z"/><path class="cls-1" d="M101.21,38.12a4.52,4.52,0,0,1-1.49.25c-1.33,0-1.86-.61-1.86-1.8V32H96.51V31h1.35V28.59h1.26V31h1.95V32H99.12v4.45c0,.65.25.88.85.88a4.34,4.34,0,0,0,1-.17Z"/><path class="cls-1" d="M112.62,34.61c0,2.28-1.33,3.82-3.18,3.82a2.71,2.71,0,0,1-2.4-1.14v3.59h-1.26V31H107v1.13a2.68,2.68,0,0,1,2.47-1.32C111.29,30.83,112.62,32.37,112.62,34.61Zm-1.29,0c0-1.62-.81-2.71-2.08-2.71s-2.25,1-2.25,2.71.91,2.74,2.25,2.74S111.33,36.26,111.33,34.61Z"/><path class="cls-1" d="M120,33.22v5h-1.14v-.88a2.82,2.82,0,0,1-2.45,1.12c-1.53,0-2.59-.66-2.59-2a1.81,1.81,0,0,1,.88-1.69,7.31,7.31,0,0,1,2.48-.82l1.62-.29v-.37c0-.9-.68-1.43-1.69-1.43a3.13,3.13,0,0,0-2.38,1.22l-.81-.72a3.94,3.94,0,0,1,3.15-1.54C119,30.81,120,31.77,120,33.22Zm-1.2,2.32v-1l-1.32.27c-1.65.34-2.35.57-2.43,1.56,0,.66.55,1,1.49,1A2,2,0,0,0,118.83,35.54Z"/><path class="cls-1" d="M127.12,33a2.65,2.65,0,0,0-2.1-1.09,1.82,1.82,0,0,0-1.62.81,3.3,3.3,0,0,0-.57,2,3.25,3.25,0,0,0,.57,1.94,1.9,1.9,0,0,0,1.65.81c.78,0,1.32-.28,2.16-1.21l.82.71a3.47,3.47,0,0,1-3,1.57c-2.12,0-3.51-1.52-3.51-3.82s1.42-3.82,3.51-3.82a3.48,3.48,0,0,1,2.89,1.38Z"/><path class="cls-1" d="M131.89,34.61l-1.31,1.33v2.3h-1.26V27.82h1.26v6.69L133.93,31h1.48l-2.66,2.77,2.95,4.45h-1.39Z"/><path class="cls-1" d="M142.6,33.22v5h-1.15v-.88A2.81,2.81,0,0,1,139,38.48c-1.52,0-2.58-.66-2.58-2a1.81,1.81,0,0,1,.88-1.69,7.31,7.31,0,0,1,2.48-.82l1.62-.29v-.37c0-.9-.68-1.43-1.69-1.43a3.13,3.13,0,0,0-2.38,1.22l-.81-.72a3.93,3.93,0,0,1,3.14-1.54C141.53,30.81,142.6,31.77,142.6,33.22Zm-1.2,2.32v-1l-1.33.27c-1.64.34-2.34.57-2.42,1.56,0,.66.55,1,1.48,1C140.43,37.43,141.4,36.7,141.4,35.54Z"/><path class="cls-1" d="M150.88,31v7.06c0,1.88-1.28,3-3.28,3A5.51,5.51,0,0,1,144.33,40l.63-.92a4.64,4.64,0,0,0,2.63.92,1.83,1.83,0,0,0,2-2V37a2.54,2.54,0,0,1-2.31,1.17c-1.85,0-3.17-1.54-3.17-3.67s1.32-3.67,3.17-3.67a2.57,2.57,0,0,1,2.38,1.27V31Zm-1.22,3.46c0-1.52-.85-2.6-2.13-2.6s-2.09,1.06-2.09,2.6.8,2.6,2.09,2.6S149.66,36,149.66,34.48Z"/><path class="cls-1" d="M154.1,29.59h-1.26V28.08h1.26Zm0,8.65h-1.26V31h1.26Z"/><path class="cls-1" d="M162.11,33.29v5h-1.26V33.69c0-1.17-.59-1.81-1.66-1.81a1.84,1.84,0,0,0-1.86,1.88v4.48h-1.26V31h1.19V32a2.54,2.54,0,0,1,2.27-1.15A2.35,2.35,0,0,1,162.11,33.29Z"/><path class="cls-1" d="M170.39,31v7.06c0,1.88-1.28,3-3.27,3A5.54,5.54,0,0,1,163.84,40l.63-.92a4.68,4.68,0,0,0,2.63.92,1.83,1.83,0,0,0,2-2V37a2.53,2.53,0,0,1-2.3,1.17c-1.85,0-3.17-1.54-3.17-3.67s1.32-3.67,3.17-3.67a2.58,2.58,0,0,1,2.38,1.27V31Zm-1.22,3.46c0-1.52-.85-2.6-2.13-2.6S165,32.94,165,34.48s.79,2.6,2.08,2.6S169.17,36,169.17,34.48Z"/><path class="cls-1" d="M182.09,33.18v5.06h-1.72v-.78a2.84,2.84,0,0,1-2.43,1c-1.54,0-2.68-.72-2.68-2.14,0-1.59,1.25-2.29,3.24-2.65l1.76-.32v-.17c0-.72-.52-1.15-1.4-1.15a2.24,2.24,0,0,0-1.18.28,7.32,7.32,0,0,0-1.16.94l-1.2-1.1a4.31,4.31,0,0,1,3.51-1.69C180.93,30.49,182.09,31.55,182.09,33.18Zm-1.83,2v-.44L179,35c-1.28.28-1.88.56-1.88,1.21,0,.47.43.74,1.15.74A1.75,1.75,0,0,0,180.26,35.19Z"/><path class="cls-1" d="M185.69,38.24h-1.91V27.82h1.91Z"/><path class="cls-1" d="M194.88,34.48c0,2.41-1.42,4-3.33,4a2.68,2.68,0,0,1-2.25-1v3.42h-1.91V30.74h1.78v1a2.68,2.68,0,0,1,2.39-1.2C193.49,30.52,194.88,32.1,194.88,34.48Zm-1.94,0c0-1.41-.7-2.32-1.82-2.32s-1.89.91-1.89,2.32.78,2.31,1.88,2.31S192.94,35.89,192.94,34.48Z"/><path class="cls-1" d="M202.91,33.1v5.14H201V33.67c0-1-.5-1.54-1.4-1.54a1.49,1.49,0,0,0-1.51,1.59v4.52h-1.91V27.82h1.91v3.59a2.65,2.65,0,0,1,2.13-.92A2.46,2.46,0,0,1,202.91,33.1Z"/><path class="cls-1" d="M211.12,33.18v5.06h-1.71v-.78a2.85,2.85,0,0,1-2.43,1c-1.54,0-2.68-.72-2.68-2.14,0-1.59,1.24-2.29,3.24-2.65l1.76-.32v-.17c0-.72-.53-1.15-1.41-1.15a2.2,2.2,0,0,0-1.17.28,6.9,6.9,0,0,0-1.16.94l-1.21-1.1a4.34,4.34,0,0,1,3.51-1.69C210,30.49,211.12,31.55,211.12,33.18Zm-1.82,2v-.44L208,35c-1.28.28-1.88.56-1.88,1.21,0,.47.43.74,1.15.74A1.75,1.75,0,0,0,209.3,35.19Z"/></g></g></svg>